<?xml version="1.0" encoding="UTF-8" standalone="no"?>
<svg
   xmlns:dc="http://purl.org/dc/elements/1.1/"
   xmlns:cc="http://creativecommons.org/ns#"
   xmlns:rdf="http://www.w3.org/1999/02/22-rdf-syntax-ns#"
   xmlns:svg="http://www.w3.org/2000/svg"
   xmlns="http://www.w3.org/2000/svg"
   xmlns:sodipodi="http://sodipodi.sourceforge.net/DTD/sodipodi-0.dtd"
   xmlns:inkscape="http://www.inkscape.org/namespaces/inkscape"
   width="87"
   height="100"
   viewBox="0 0 87 100"
   version="1.1"
   id="svg848"
   inkscape:version="1.0.2-2 (e86c870879, 2021-01-15)"
   sodipodi:docname="logo-new-only.svg">
  <defs
     id="defs842" />
  <sodipodi:namedview
     id="base"
     pagecolor="#ffffff"
     bordercolor="#666666"
     borderopacity="1.0"
     inkscape:pageopacity="0.0"
     inkscape:pageshadow="2"
     inkscape:zoom="1.4"
     inkscape:cx="315.77496"
     inkscape:cy="253.67387"
     inkscape:document-units="mm"
     inkscape:current-layer="layer1"
     inkscape:document-rotation="0"
     showgrid="true"
     inkscape:window-width="1920"
     inkscape:window-height="1009"
     inkscape:window-x="-8"
     inkscape:window-y="-8"
     inkscape:window-maximized="1">
    <inkscape:grid
       type="axonomgrid"
       id="grid1411"
       spacingy="2.5"
       empspacing="5" />
  </sodipodi:namedview>
  <metadata
     id="metadata845">
    <rdf:RDF>
      <cc:Work
         rdf:about="">
        <dc:format>image/svg+xml</dc:format>
        <dc:type
           rdf:resource="http://purl.org/dc/dcmitype/StillImage" />
        <dc:title></dc:title>
      </cc:Work>
    </rdf:RDF>
  </metadata>
  <g
     inkscape:label="Warstwa 1"
     inkscape:groupmode="layer"
     id="layer1">
    <path
       style="fill:#000000;fill-opacity:1;stroke:none;stroke-width:0.264583px;stroke-linecap:butt;stroke-linejoin:miter;stroke-opacity:1"
       d="M 43.301265,12.5 V 0 L 1.2838332e-6,25 V 75 L 43.301265,100 V 87.5 L 10.825318,68.75 v -12.5 l 21.650637,12.5 V 56.25 L 10.825318,43.75 V 31.25 L 43.301265,12.5"
       id="path2077-6-3"
       sodipodi:nodetypes="ccccccccccccc" />
    <path
       style="fill:#000000;fill-opacity:1;stroke:none;stroke-width:0.264583px;stroke-linecap:butt;stroke-linejoin:miter;stroke-opacity:1"
       d="m 32.475955,18.75 v 50 12.5 l 10.82531,6.25 5e-6,-25 L 64.951905,75 43.30127,87.5 V 100 L 64.951905,87.5 86.602545,75 l -5e-6,-37.5 -10.825317,-6.25 -8e-6,37.5 L 54.126588,56.25 43.301265,50 75.777215,31.25 86.602535,37.5 V 25 L 43.301265,0 32.475945,6.25 64.951905,25 43.301265,37.5 v -25 z"
       id="path2099-7"
       sodipodi:nodetypes="cccccccccccccccccccccccc" />
  </g>
</svg>
